<mxfile host="Electron" modified="2023-07-18T02:56:37.399Z" agent="Mozilla/5.0 (X11; Linux x86_64) AppleWebKit/537.36 (KHTML, like Gecko) draw.io/21.6.1 Chrome/112.0.5615.204 Electron/24.6.1 Safari/537.36" etag="Kl5JrYJWxe3Ol2srT4Cr" version="21.6.1" type="device">
  <diagram name="Page-1" id="ASnf5UQKjA5EwKTxF0r2">
    <mxGraphModel dx="1097" dy="698" grid="1" gridSize="10" guides="1" tooltips="1" connect="1" arrows="1" fold="1" page="1" pageScale="1" pageWidth="1100" pageHeight="850" math="0" shadow="0">
      <root>
        <mxCell id="0" />
        <mxCell id="1" parent="0" />
        <mxCell id="vMYGakdIta8Ne1as9olM-78" value="" style="rounded=0;whiteSpace=wrap;html=1;fillColor=#fff2cc;strokeColor=#d6b656;labelPosition=center;verticalLabelPosition=top;align=center;verticalAlign=bottom;" vertex="1" parent="1">
          <mxGeometry x="720" y="100" width="180" height="180" as="geometry" />
        </mxCell>
        <mxCell id="vMYGakdIta8Ne1as9olM-65" value="" style="rounded=0;whiteSpace=wrap;html=1;fillColor=#fff2cc;strokeColor=#d6b656;labelPosition=center;verticalLabelPosition=top;align=center;verticalAlign=bottom;" vertex="1" parent="1">
          <mxGeometry x="720" y="320" width="180" height="260" as="geometry" />
        </mxCell>
        <mxCell id="vMYGakdIta8Ne1as9olM-33" value="" style="rounded=0;whiteSpace=wrap;html=1;fillColor=none;dashed=1;strokeWidth=2;" vertex="1" parent="1">
          <mxGeometry x="120" y="60" width="400" height="540" as="geometry" />
        </mxCell>
        <mxCell id="vMYGakdIta8Ne1as9olM-59" value="" style="rounded=0;whiteSpace=wrap;html=1;fillColor=#fff2cc;strokeColor=#d6b656;labelPosition=center;verticalLabelPosition=top;align=center;verticalAlign=bottom;" vertex="1" parent="1">
          <mxGeometry x="290" y="100" width="180" height="480" as="geometry" />
        </mxCell>
        <mxCell id="vMYGakdIta8Ne1as9olM-1" value="Core SoC" style="rounded=0;whiteSpace=wrap;html=1;fillColor=#dae8fc;strokeColor=#6c8ebf;fontSize=14;fontStyle=1" vertex="1" parent="1">
          <mxGeometry x="320" y="500" width="120" height="60" as="geometry" />
        </mxCell>
        <mxCell id="vMYGakdIta8Ne1as9olM-2" value="DAB SoC" style="rounded=0;whiteSpace=wrap;html=1;fillColor=#dae8fc;strokeColor=#6c8ebf;fontSize=14;fontStyle=1" vertex="1" parent="1">
          <mxGeometry x="320" y="295" width="120" height="125" as="geometry" />
        </mxCell>
        <mxCell id="vMYGakdIta8Ne1as9olM-4" value="" style="shape=flexArrow;endArrow=classic;startArrow=classic;html=1;rounded=0;fillColor=#dae8fc;strokeColor=#6c8ebf;" edge="1" parent="1">
          <mxGeometry width="100" height="100" relative="1" as="geometry">
            <mxPoint x="360" y="500" as="sourcePoint" />
            <mxPoint x="360" y="420" as="targetPoint" />
          </mxGeometry>
        </mxCell>
        <mxCell id="vMYGakdIta8Ne1as9olM-5" value="Control Data" style="edgeLabel;html=1;align=center;verticalAlign=middle;resizable=0;points=[];" vertex="1" connectable="0" parent="vMYGakdIta8Ne1as9olM-4">
          <mxGeometry x="0.5464" y="-9" relative="1" as="geometry">
            <mxPoint x="-9" y="22" as="offset" />
          </mxGeometry>
        </mxCell>
        <mxCell id="vMYGakdIta8Ne1as9olM-6" value="" style="endArrow=classic;html=1;rounded=0;exitX=0.831;exitY=0.017;exitDx=0;exitDy=0;exitPerimeter=0;entryX=0.831;entryY=1.022;entryDx=0;entryDy=0;entryPerimeter=0;" edge="1" parent="1" source="vMYGakdIta8Ne1as9olM-1" target="vMYGakdIta8Ne1as9olM-2">
          <mxGeometry width="50" height="50" relative="1" as="geometry">
            <mxPoint x="410" y="555" as="sourcePoint" />
            <mxPoint x="460" y="505" as="targetPoint" />
          </mxGeometry>
        </mxCell>
        <mxCell id="vMYGakdIta8Ne1as9olM-7" value="Enable" style="edgeLabel;html=1;align=center;verticalAlign=middle;resizable=0;points=[];" vertex="1" connectable="0" parent="vMYGakdIta8Ne1as9olM-6">
          <mxGeometry x="0.2217" y="-2" relative="1" as="geometry">
            <mxPoint y="8" as="offset" />
          </mxGeometry>
        </mxCell>
        <mxCell id="vMYGakdIta8Ne1as9olM-9" value="Analog Radio Device" style="rounded=0;whiteSpace=wrap;html=1;fillColor=#dae8fc;strokeColor=#6c8ebf;" vertex="1" parent="1">
          <mxGeometry x="320" y="139" width="120" height="60" as="geometry" />
        </mxCell>
        <mxCell id="vMYGakdIta8Ne1as9olM-10" value="" style="verticalLabelPosition=bottom;shadow=0;dashed=0;align=center;html=1;verticalAlign=top;shape=mxgraph.electrical.radio.aerial_-_antenna_1;" vertex="1" parent="1">
          <mxGeometry x="250" y="129" width="20" height="20" as="geometry" />
        </mxCell>
        <mxCell id="vMYGakdIta8Ne1as9olM-11" value="" style="endArrow=none;html=1;rounded=0;exitX=0.5;exitY=1;exitDx=0;exitDy=0;exitPerimeter=0;entryX=0.003;entryY=0.165;entryDx=0;entryDy=0;entryPerimeter=0;" edge="1" parent="1" source="vMYGakdIta8Ne1as9olM-10" target="vMYGakdIta8Ne1as9olM-9">
          <mxGeometry width="50" height="50" relative="1" as="geometry">
            <mxPoint x="230" y="194" as="sourcePoint" />
            <mxPoint x="280" y="144" as="targetPoint" />
          </mxGeometry>
        </mxCell>
        <mxCell id="vMYGakdIta8Ne1as9olM-12" value="" style="verticalLabelPosition=bottom;shadow=0;dashed=0;align=center;html=1;verticalAlign=top;shape=mxgraph.electrical.radio.aerial_-_antenna_1;" vertex="1" parent="1">
          <mxGeometry x="250" y="169" width="20" height="20" as="geometry" />
        </mxCell>
        <mxCell id="vMYGakdIta8Ne1as9olM-13" value="" style="endArrow=none;html=1;rounded=0;exitX=0.5;exitY=1;exitDx=0;exitDy=0;exitPerimeter=0;entryX=0.003;entryY=0.165;entryDx=0;entryDy=0;entryPerimeter=0;" edge="1" parent="1" source="vMYGakdIta8Ne1as9olM-12">
          <mxGeometry width="50" height="50" relative="1" as="geometry">
            <mxPoint x="230" y="234" as="sourcePoint" />
            <mxPoint x="320" y="189" as="targetPoint" />
          </mxGeometry>
        </mxCell>
        <mxCell id="vMYGakdIta8Ne1as9olM-14" value="AM" style="text;strokeColor=none;align=center;fillColor=none;html=1;verticalAlign=middle;whiteSpace=wrap;rounded=0;" vertex="1" parent="1">
          <mxGeometry x="210" y="124" width="30" height="30" as="geometry" />
        </mxCell>
        <mxCell id="vMYGakdIta8Ne1as9olM-15" value="FM" style="text;strokeColor=none;align=center;fillColor=none;html=1;verticalAlign=middle;whiteSpace=wrap;rounded=0;" vertex="1" parent="1">
          <mxGeometry x="210" y="164" width="30" height="30" as="geometry" />
        </mxCell>
        <mxCell id="vMYGakdIta8Ne1as9olM-19" value="" style="endArrow=none;html=1;rounded=0;exitX=0.5;exitY=1;exitDx=0;exitDy=0;exitPerimeter=0;entryX=0.003;entryY=0.165;entryDx=0;entryDy=0;entryPerimeter=0;" edge="1" source="vMYGakdIta8Ne1as9olM-20" parent="1">
          <mxGeometry width="50" height="50" relative="1" as="geometry">
            <mxPoint x="230" y="365" as="sourcePoint" />
            <mxPoint x="320" y="320" as="targetPoint" />
          </mxGeometry>
        </mxCell>
        <mxCell id="vMYGakdIta8Ne1as9olM-20" value="" style="verticalLabelPosition=bottom;shadow=0;dashed=0;align=center;html=1;verticalAlign=top;shape=mxgraph.electrical.radio.aerial_-_antenna_1;" vertex="1" parent="1">
          <mxGeometry x="250" y="300" width="20" height="20" as="geometry" />
        </mxCell>
        <mxCell id="vMYGakdIta8Ne1as9olM-21" value="" style="endArrow=none;html=1;rounded=0;exitX=0.5;exitY=1;exitDx=0;exitDy=0;exitPerimeter=0;entryX=0.003;entryY=0.165;entryDx=0;entryDy=0;entryPerimeter=0;" edge="1" source="vMYGakdIta8Ne1as9olM-22" parent="1">
          <mxGeometry width="50" height="50" relative="1" as="geometry">
            <mxPoint x="230" y="405" as="sourcePoint" />
            <mxPoint x="320" y="360" as="targetPoint" />
          </mxGeometry>
        </mxCell>
        <mxCell id="vMYGakdIta8Ne1as9olM-22" value="" style="verticalLabelPosition=bottom;shadow=0;dashed=0;align=center;html=1;verticalAlign=top;shape=mxgraph.electrical.radio.aerial_-_antenna_1;" vertex="1" parent="1">
          <mxGeometry x="250" y="340" width="20" height="20" as="geometry" />
        </mxCell>
        <mxCell id="vMYGakdIta8Ne1as9olM-23" value="" style="endArrow=none;html=1;rounded=0;exitX=0.5;exitY=1;exitDx=0;exitDy=0;exitPerimeter=0;entryX=0.003;entryY=0.165;entryDx=0;entryDy=0;entryPerimeter=0;" edge="1" source="vMYGakdIta8Ne1as9olM-24" parent="1">
          <mxGeometry width="50" height="50" relative="1" as="geometry">
            <mxPoint x="230" y="445" as="sourcePoint" />
            <mxPoint x="320" y="400" as="targetPoint" />
          </mxGeometry>
        </mxCell>
        <mxCell id="vMYGakdIta8Ne1as9olM-24" value="" style="verticalLabelPosition=bottom;shadow=0;dashed=0;align=center;html=1;verticalAlign=top;shape=mxgraph.electrical.radio.aerial_-_antenna_1;" vertex="1" parent="1">
          <mxGeometry x="250" y="380" width="20" height="20" as="geometry" />
        </mxCell>
        <mxCell id="vMYGakdIta8Ne1as9olM-25" value="Main DAB III" style="text;strokeColor=none;align=center;fillColor=none;html=1;verticalAlign=middle;whiteSpace=wrap;rounded=0;" vertex="1" parent="1">
          <mxGeometry x="160" y="300" width="80" height="20" as="geometry" />
        </mxCell>
        <mxCell id="vMYGakdIta8Ne1as9olM-28" value="Aux DAB III" style="text;strokeColor=none;align=center;fillColor=none;html=1;verticalAlign=middle;whiteSpace=wrap;rounded=0;" vertex="1" parent="1">
          <mxGeometry x="160" y="340" width="80" height="20" as="geometry" />
        </mxCell>
        <mxCell id="vMYGakdIta8Ne1as9olM-29" value="DAB L" style="text;strokeColor=none;align=center;fillColor=none;html=1;verticalAlign=middle;whiteSpace=wrap;rounded=0;" vertex="1" parent="1">
          <mxGeometry x="160" y="380" width="80" height="20" as="geometry" />
        </mxCell>
        <mxCell id="vMYGakdIta8Ne1as9olM-30" value="" style="shape=flexArrow;endArrow=classic;startArrow=classic;html=1;rounded=0;fillColor=#dae8fc;strokeColor=#6c8ebf;entryX=0.5;entryY=1;entryDx=0;entryDy=0;" edge="1" parent="1" target="vMYGakdIta8Ne1as9olM-9">
          <mxGeometry width="100" height="100" relative="1" as="geometry">
            <mxPoint x="380" y="295" as="sourcePoint" />
            <mxPoint x="379.66" y="235" as="targetPoint" />
          </mxGeometry>
        </mxCell>
        <mxCell id="vMYGakdIta8Ne1as9olM-31" value="Digital baseband inputs&lt;br&gt;Blend control&lt;br&gt;Digital audio IO" style="edgeLabel;html=1;align=center;verticalAlign=middle;resizable=0;points=[];" vertex="1" connectable="0" parent="vMYGakdIta8Ne1as9olM-30">
          <mxGeometry x="0.5464" y="-9" relative="1" as="geometry">
            <mxPoint x="-9" y="25" as="offset" />
          </mxGeometry>
        </mxCell>
        <mxCell id="vMYGakdIta8Ne1as9olM-34" value="DAB Integrated Solution" style="text;strokeColor=none;align=center;fillColor=none;html=1;verticalAlign=middle;whiteSpace=wrap;rounded=0;fontSize=16;fontStyle=1" vertex="1" parent="1">
          <mxGeometry x="120" y="60" width="400" height="40" as="geometry" />
        </mxCell>
        <mxCell id="vMYGakdIta8Ne1as9olM-35" value="Core SoC" style="rounded=0;whiteSpace=wrap;html=1;fillColor=#dae8fc;strokeColor=#6c8ebf;fontSize=14;fontStyle=1" vertex="1" parent="1">
          <mxGeometry x="759" y="500" width="120" height="60" as="geometry" />
        </mxCell>
        <mxCell id="vMYGakdIta8Ne1as9olM-41" value="Analog Radio Device" style="rounded=0;whiteSpace=wrap;html=1;fillColor=#dae8fc;strokeColor=#6c8ebf;" vertex="1" parent="1">
          <mxGeometry x="759" y="379" width="120" height="60" as="geometry" />
        </mxCell>
        <mxCell id="vMYGakdIta8Ne1as9olM-42" value="" style="verticalLabelPosition=bottom;shadow=0;dashed=0;align=center;html=1;verticalAlign=top;shape=mxgraph.electrical.radio.aerial_-_antenna_1;" vertex="1" parent="1">
          <mxGeometry x="689" y="369" width="20" height="20" as="geometry" />
        </mxCell>
        <mxCell id="vMYGakdIta8Ne1as9olM-43" value="" style="endArrow=none;html=1;rounded=0;exitX=0.5;exitY=1;exitDx=0;exitDy=0;exitPerimeter=0;entryX=0.003;entryY=0.165;entryDx=0;entryDy=0;entryPerimeter=0;" edge="1" source="vMYGakdIta8Ne1as9olM-42" target="vMYGakdIta8Ne1as9olM-41" parent="1">
          <mxGeometry width="50" height="50" relative="1" as="geometry">
            <mxPoint x="669" y="434" as="sourcePoint" />
            <mxPoint x="719" y="384" as="targetPoint" />
          </mxGeometry>
        </mxCell>
        <mxCell id="vMYGakdIta8Ne1as9olM-44" value="" style="verticalLabelPosition=bottom;shadow=0;dashed=0;align=center;html=1;verticalAlign=top;shape=mxgraph.electrical.radio.aerial_-_antenna_1;" vertex="1" parent="1">
          <mxGeometry x="689" y="409" width="20" height="20" as="geometry" />
        </mxCell>
        <mxCell id="vMYGakdIta8Ne1as9olM-45" value="" style="endArrow=none;html=1;rounded=0;exitX=0.5;exitY=1;exitDx=0;exitDy=0;exitPerimeter=0;entryX=0.003;entryY=0.165;entryDx=0;entryDy=0;entryPerimeter=0;" edge="1" source="vMYGakdIta8Ne1as9olM-44" parent="1">
          <mxGeometry width="50" height="50" relative="1" as="geometry">
            <mxPoint x="669" y="474" as="sourcePoint" />
            <mxPoint x="759" y="429" as="targetPoint" />
          </mxGeometry>
        </mxCell>
        <mxCell id="vMYGakdIta8Ne1as9olM-46" value="AM" style="text;strokeColor=none;align=center;fillColor=none;html=1;verticalAlign=middle;whiteSpace=wrap;rounded=0;" vertex="1" parent="1">
          <mxGeometry x="649" y="364" width="30" height="30" as="geometry" />
        </mxCell>
        <mxCell id="vMYGakdIta8Ne1as9olM-47" value="FM" style="text;strokeColor=none;align=center;fillColor=none;html=1;verticalAlign=middle;whiteSpace=wrap;rounded=0;" vertex="1" parent="1">
          <mxGeometry x="649" y="404" width="30" height="30" as="geometry" />
        </mxCell>
        <mxCell id="vMYGakdIta8Ne1as9olM-61" value="FICM/ICM" style="text;strokeColor=none;align=center;fillColor=none;html=1;verticalAlign=middle;whiteSpace=wrap;rounded=0;fontSize=14;fontStyle=1" vertex="1" parent="1">
          <mxGeometry x="290" y="100" width="180" height="40" as="geometry" />
        </mxCell>
        <mxCell id="vMYGakdIta8Ne1as9olM-62" value="" style="shape=flexArrow;endArrow=classic;startArrow=classic;html=1;rounded=0;fillColor=#dae8fc;strokeColor=#6c8ebf;" edge="1" parent="1">
          <mxGeometry width="100" height="100" relative="1" as="geometry">
            <mxPoint x="818.58" y="500" as="sourcePoint" />
            <mxPoint x="819" y="440" as="targetPoint" />
          </mxGeometry>
        </mxCell>
        <mxCell id="vMYGakdIta8Ne1as9olM-63" value="Blend control" style="edgeLabel;html=1;align=center;verticalAlign=middle;resizable=0;points=[];" vertex="1" connectable="0" parent="vMYGakdIta8Ne1as9olM-62">
          <mxGeometry x="0.5464" y="-9" relative="1" as="geometry">
            <mxPoint x="-9" y="17" as="offset" />
          </mxGeometry>
        </mxCell>
        <mxCell id="vMYGakdIta8Ne1as9olM-66" value="FICM/ICM" style="text;strokeColor=none;align=center;fillColor=none;html=1;verticalAlign=middle;whiteSpace=wrap;rounded=0;fontSize=14;fontStyle=1" vertex="1" parent="1">
          <mxGeometry x="720" y="320" width="180" height="40" as="geometry" />
        </mxCell>
        <mxCell id="vMYGakdIta8Ne1as9olM-68" value="DAB SoC" style="rounded=0;whiteSpace=wrap;html=1;fillColor=#dae8fc;strokeColor=#6c8ebf;fontSize=14;fontStyle=1" vertex="1" parent="1">
          <mxGeometry x="759" y="136.5" width="120" height="125" as="geometry" />
        </mxCell>
        <mxCell id="vMYGakdIta8Ne1as9olM-69" value="" style="endArrow=none;html=1;rounded=0;exitX=0.5;exitY=1;exitDx=0;exitDy=0;exitPerimeter=0;entryX=0.003;entryY=0.165;entryDx=0;entryDy=0;entryPerimeter=0;" edge="1" parent="1" source="vMYGakdIta8Ne1as9olM-70">
          <mxGeometry width="50" height="50" relative="1" as="geometry">
            <mxPoint x="669" y="206.5" as="sourcePoint" />
            <mxPoint x="759" y="161.5" as="targetPoint" />
          </mxGeometry>
        </mxCell>
        <mxCell id="vMYGakdIta8Ne1as9olM-70" value="" style="verticalLabelPosition=bottom;shadow=0;dashed=0;align=center;html=1;verticalAlign=top;shape=mxgraph.electrical.radio.aerial_-_antenna_1;" vertex="1" parent="1">
          <mxGeometry x="689" y="141.5" width="20" height="20" as="geometry" />
        </mxCell>
        <mxCell id="vMYGakdIta8Ne1as9olM-71" value="" style="endArrow=none;html=1;rounded=0;exitX=0.5;exitY=1;exitDx=0;exitDy=0;exitPerimeter=0;entryX=0.003;entryY=0.165;entryDx=0;entryDy=0;entryPerimeter=0;" edge="1" parent="1" source="vMYGakdIta8Ne1as9olM-72">
          <mxGeometry width="50" height="50" relative="1" as="geometry">
            <mxPoint x="669" y="246.5" as="sourcePoint" />
            <mxPoint x="759" y="201.5" as="targetPoint" />
          </mxGeometry>
        </mxCell>
        <mxCell id="vMYGakdIta8Ne1as9olM-72" value="" style="verticalLabelPosition=bottom;shadow=0;dashed=0;align=center;html=1;verticalAlign=top;shape=mxgraph.electrical.radio.aerial_-_antenna_1;" vertex="1" parent="1">
          <mxGeometry x="689" y="181.5" width="20" height="20" as="geometry" />
        </mxCell>
        <mxCell id="vMYGakdIta8Ne1as9olM-73" value="" style="endArrow=none;html=1;rounded=0;exitX=0.5;exitY=1;exitDx=0;exitDy=0;exitPerimeter=0;entryX=0.003;entryY=0.165;entryDx=0;entryDy=0;entryPerimeter=0;" edge="1" parent="1" source="vMYGakdIta8Ne1as9olM-74">
          <mxGeometry width="50" height="50" relative="1" as="geometry">
            <mxPoint x="669" y="286.5" as="sourcePoint" />
            <mxPoint x="759" y="241.5" as="targetPoint" />
          </mxGeometry>
        </mxCell>
        <mxCell id="vMYGakdIta8Ne1as9olM-74" value="" style="verticalLabelPosition=bottom;shadow=0;dashed=0;align=center;html=1;verticalAlign=top;shape=mxgraph.electrical.radio.aerial_-_antenna_1;" vertex="1" parent="1">
          <mxGeometry x="689" y="221.5" width="20" height="20" as="geometry" />
        </mxCell>
        <mxCell id="vMYGakdIta8Ne1as9olM-75" value="Main DAB III" style="text;strokeColor=none;align=center;fillColor=none;html=1;verticalAlign=middle;whiteSpace=wrap;rounded=0;" vertex="1" parent="1">
          <mxGeometry x="599" y="141.5" width="80" height="20" as="geometry" />
        </mxCell>
        <mxCell id="vMYGakdIta8Ne1as9olM-76" value="Aux DAB III" style="text;strokeColor=none;align=center;fillColor=none;html=1;verticalAlign=middle;whiteSpace=wrap;rounded=0;" vertex="1" parent="1">
          <mxGeometry x="599" y="181.5" width="80" height="20" as="geometry" />
        </mxCell>
        <mxCell id="vMYGakdIta8Ne1as9olM-77" value="DAB L" style="text;strokeColor=none;align=center;fillColor=none;html=1;verticalAlign=middle;whiteSpace=wrap;rounded=0;" vertex="1" parent="1">
          <mxGeometry x="599" y="221.5" width="80" height="20" as="geometry" />
        </mxCell>
        <mxCell id="vMYGakdIta8Ne1as9olM-79" value="External DAB Module" style="text;strokeColor=none;align=center;fillColor=none;html=1;verticalAlign=middle;whiteSpace=wrap;rounded=0;fontSize=14;fontStyle=1" vertex="1" parent="1">
          <mxGeometry x="720" y="99" width="180" height="40" as="geometry" />
        </mxCell>
        <mxCell id="vMYGakdIta8Ne1as9olM-80" value="" style="endArrow=classic;html=1;rounded=0;exitX=1.008;exitY=0.65;exitDx=0;exitDy=0;exitPerimeter=0;entryX=1;entryY=0.5;entryDx=0;entryDy=0;fontSize=14;strokeWidth=2;" edge="1" parent="1" source="vMYGakdIta8Ne1as9olM-35" target="vMYGakdIta8Ne1as9olM-68">
          <mxGeometry width="50" height="50" relative="1" as="geometry">
            <mxPoint x="980" y="464" as="sourcePoint" />
            <mxPoint x="980" y="386" as="targetPoint" />
            <Array as="points">
              <mxPoint x="960" y="540" />
              <mxPoint x="960" y="200" />
            </Array>
          </mxGeometry>
        </mxCell>
        <mxCell id="vMYGakdIta8Ne1as9olM-81" value="&lt;font style=&quot;font-size: 13px;&quot;&gt;&lt;b&gt;Enable&lt;/b&gt;&lt;/font&gt;" style="edgeLabel;html=1;align=center;verticalAlign=middle;resizable=0;points=[];" vertex="1" connectable="0" parent="vMYGakdIta8Ne1as9olM-80">
          <mxGeometry x="0.2217" y="-2" relative="1" as="geometry">
            <mxPoint y="8" as="offset" />
          </mxGeometry>
        </mxCell>
        <mxCell id="vMYGakdIta8Ne1as9olM-86" value="" style="rounded=0;whiteSpace=wrap;html=1;fillColor=none;dashed=1;strokeWidth=2;" vertex="1" parent="1">
          <mxGeometry x="590" y="60" width="400" height="540" as="geometry" />
        </mxCell>
        <mxCell id="vMYGakdIta8Ne1as9olM-87" value="DAB Distrubuted Solution" style="text;strokeColor=none;align=center;fillColor=none;html=1;verticalAlign=middle;whiteSpace=wrap;rounded=0;fontSize=16;fontStyle=1" vertex="1" parent="1">
          <mxGeometry x="590" y="60" width="400" height="40" as="geometry" />
        </mxCell>
      </root>
    </mxGraphModel>
  </diagram>
</mxfile>
